<?xml version="1.0" standalone="no"?>
<!DOCTYPE svg PUBLIC "-//W3C//DTD SVG 20010904//EN"
 "http://www.w3.org/TR/2001/REC-SVG-20010904/DTD/svg10.dtd">
<svg version="1.0" xmlns="http://www.w3.org/2000/svg"
 width="1627.000000pt" height="1627.000000pt" viewBox="0 0 1627.000000 1627.000000"
 preserveAspectRatio="xMidYMid meet">
<metadata>
Created by potrace 1.11, written by Peter Selinger 2001-2013
</metadata>
<g transform="translate(0.000000,1627.000000) scale(0.100000,-0.100000)"
fill="#000000" stroke="none">
<path d="M1779 16253 c0 -10 -2 -855 -2 -1878 l-2 -1859 -743 0 -742 0 0
-1252 0 -1251 718 -1 c394 0 729 -1 743 -1 l25 -1 0 -1875 0 -1875 -55 0 c-31
-1 -365 -1 -744 -1 l-687 0 0 -3129 0 -3129 588 4 c1056 7 2477 17 2967 20
264 2 576 4 693 4 l212 1 0 3115 0 3114 728 0 c400 0 734 0 743 1 14 0 16 170
16 1875 0 1705 -2 1875 -16 1876 -9 0 -343 1 -744 1 l-727 1 2 1251 3 1251
738 0 c647 0 738 2 741 15 2 8 3 852 3 1875 l-2 1860 -2227 3 c-2117 2 -2228
1 -2229 -15z"/>
<path d="M10037 16193 c8 -43 16 -89 18 -103 2 -14 11 -63 20 -110 9 -47 19
-96 21 -110 10 -56 64 -357 69 -380 3 -14 12 -63 20 -110 8 -47 17 -96 20
-110 3 -14 9 -47 14 -75 6 -27 12 -63 15 -80 2 -16 14 -82 26 -145 11 -63 30
-162 40 -220 21 -113 25 -139 40 -215 5 -27 12 -63 15 -80 2 -16 9 -53 14 -82
6 -29 13 -74 17 -100 3 -26 8 -50 9 -53 3 -4 37 -188 51 -270 3 -14 7 -36 9
-50 10 -50 15 -76 25 -135 6 -33 15 -80 19 -105 5 -25 15 -74 21 -110 6 -36
15 -85 20 -110 15 -78 49 -264 55 -300 3 -19 26 -143 50 -275 24 -132 46 -253
49 -270 6 -34 104 -566 111 -605 6 -28 11 -60 25 -140 6 -30 12 -66 15 -80 3
-14 12 -65 21 -115 8 -49 17 -92 19 -95 1 -3 6 -27 9 -55 4 -27 9 -57 11 -65
2 -8 6 -31 9 -50 3 -19 7 -44 10 -55 6 -31 37 -197 42 -225 2 -14 13 -72 24
-130 10 -58 21 -123 25 -145 3 -22 7 -47 10 -55 5 -16 5 -20 35 -185 10 -60
33 -184 50 -275 17 -91 33 -178 36 -195 5 -31 33 -184 40 -220 2 -11 20 -110
40 -220 20 -110 37 -202 39 -205 2 -3 6 -27 9 -55 4 -27 9 -57 11 -65 2 -8 7
-31 10 -50 3 -19 16 -93 30 -165 24 -133 60 -326 70 -380 3 -16 7 -43 10 -60
3 -16 22 -115 41 -220 19 -104 36 -200 38 -211 3 -12 7 -39 10 -60 4 -22 9
-46 12 -55 4 -14 -16 -145 -41 -269 -6 -30 -13 -68 -20 -112 -3 -18 -8 -40
-10 -48 -2 -8 -6 -31 -9 -50 -3 -19 -10 -60 -16 -90 -6 -30 -18 -93 -26 -140
-8 -47 -17 -96 -19 -110 -52 -275 -72 -383 -89 -480 -4 -25 -32 -177 -40 -216
-2 -12 -7 -37 -10 -55 -3 -19 -16 -95 -30 -169 -14 -74 -27 -146 -29 -160 -17
-90 -48 -259 -52 -280 -3 -14 -10 -54 -16 -89 -5 -36 -11 -67 -13 -70 -2 -3
-7 -28 -10 -56 -4 -27 -13 -81 -21 -120 -20 -100 -56 -296 -60 -325 -2 -14
-16 -88 -30 -165 -15 -77 -29 -151 -31 -165 -12 -63 -44 -238 -48 -260 -8 -45
-46 -255 -51 -280 -3 -14 -7 -38 -10 -55 -2 -16 -7 -42 -10 -57 -3 -16 -7 -40
-10 -55 -3 -16 -9 -53 -15 -83 -6 -30 -12 -67 -15 -82 -6 -32 -4 -24 -39 -213
-14 -77 -28 -153 -31 -170 -16 -92 -51 -282 -60 -330 -3 -16 -14 -77 -25 -135
-11 -58 -22 -118 -25 -135 -3 -16 -10 -57 -16 -90 -5 -33 -16 -91 -24 -130 -8
-38 -17 -86 -20 -105 -3 -19 -19 -109 -36 -200 -16 -91 -34 -187 -39 -215 -5
-27 -25 -138 -45 -245 -19 -107 -38 -208 -41 -225 -2 -16 -7 -37 -9 -45 -2 -8
-7 -35 -11 -60 -3 -25 -7 -49 -8 -55 -4 -15 -12 -60 -46 -245 -16 -91 -32
-178 -35 -195 -3 -16 -12 -66 -20 -110 -8 -44 -17 -91 -20 -105 -3 -14 -8 -38
-10 -55 -3 -16 -12 -66 -20 -110 -8 -44 -17 -93 -20 -110 -2 -16 -7 -41 -10
-55 -5 -25 -21 -110 -30 -162 -3 -16 -7 -40 -10 -55 -3 -16 -8 -44 -11 -63 -3
-19 -7 -42 -9 -50 -2 -8 -7 -31 -10 -50 -10 -61 -44 -253 -56 -310 -6 -30 -12
-63 -14 -73 -3 -16 109 -17 2231 -17 1229 0 2233 3 2232 8 -2 6 10 81 17 117
3 13 32 170 40 210 9 56 54 300 58 320 3 11 8 40 13 65 4 25 8 47 9 50 1 3 5
30 9 60 5 30 10 64 13 75 2 11 6 31 9 45 2 14 9 48 15 76 5 28 12 64 15 80 3
16 12 67 20 114 9 47 17 92 19 100 1 8 6 35 10 60 8 50 12 73 20 110 3 14 19
102 35 195 17 94 37 204 45 245 8 41 17 89 20 105 2 17 16 91 30 165 14 74 28
151 31 170 3 19 16 91 29 160 29 150 32 167 45 249 6 36 12 67 14 70 2 3 7 27
10 53 4 26 8 53 11 60 2 7 6 29 9 48 3 19 8 45 10 56 2 12 7 39 10 60 4 22 8
46 11 54 2 8 6 33 10 55 3 22 18 110 34 195 44 233 63 332 68 365 2 17 13 75
23 130 10 55 21 116 25 135 3 19 17 96 31 170 14 74 28 149 30 165 3 17 9 50
14 75 5 25 12 63 16 85 4 22 8 42 9 45 0 3 4 28 9 55 4 28 14 82 21 120 7 39
21 111 30 160 9 50 23 124 30 165 8 41 17 91 20 110 5 29 21 118 51 275 2 11
11 61 20 110 8 50 27 149 40 220 14 72 27 141 29 155 3 20 55 308 90 495 3 17
8 46 11 65 3 19 7 42 9 50 5 16 15 72 20 105 1 11 30 169 63 350 72 387 93
503 126 690 2 11 13 70 25 130 11 61 23 122 25 138 3 15 10 54 16 88 8 45 8
75 0 117 -27 132 -30 149 -35 182 -3 19 -8 46 -10 60 -3 14 -8 36 -10 50 -3
14 -8 41 -11 60 -3 19 -14 80 -24 135 -11 55 -22 114 -25 130 -8 47 -14 82
-36 200 -12 61 -23 120 -25 133 -2 12 -9 49 -14 82 -6 33 -13 72 -16 87 -2 16
-8 48 -14 73 -5 25 -11 61 -14 80 -4 19 -8 46 -11 60 -5 26 -21 112 -30 165
-2 17 -14 80 -25 140 -12 61 -30 157 -40 215 -11 58 -21 116 -24 130 -3 14
-12 64 -20 113 -21 114 -45 246 -51 277 -5 25 -60 330 -70 385 -2 17 -7 39 -9
50 -11 56 -46 245 -51 275 -5 32 -32 178 -41 225 -6 32 -25 132 -30 162 -2 16
-18 100 -34 188 -16 88 -31 171 -34 185 -10 60 -31 171 -41 220 -2 14 -7 41
-10 60 -6 35 -30 169 -40 223 -3 15 -7 39 -10 54 -2 15 -9 49 -14 77 -6 28
-12 62 -15 76 -6 37 -45 251 -51 280 -3 14 -8 39 -10 55 -9 48 -54 297 -60
330 -9 48 -36 193 -64 350 -11 61 -27 146 -35 190 -8 44 -18 94 -21 110 -3 17
-12 68 -20 115 -8 47 -17 96 -20 110 -11 57 -27 147 -31 175 -3 17 -7 41 -10
55 -3 14 -8 36 -10 50 -6 36 -82 447 -104 565 -10 55 -26 141 -35 190 -36 201
-45 253 -56 310 -6 33 -15 81 -21 107 -5 25 -11 57 -13 70 -3 22 -14 85 -34
198 -6 30 -13 69 -16 85 -3 17 -7 39 -10 51 -3 12 -7 39 -10 60 -3 21 -8 45
-10 52 -4 9 -459 12 -2233 12 l-2229 0 14 -77z"/>
<path d="M8738 9762 l-338 -2 0 -1894 c0 -1795 1 -1894 18 -1898 14 -3 1567
-2 1597 1 10 1 13 3777 3 3787 -6 6 -819 10 -1280 6z"/>
</g>
</svg>
